<svg id="Layer_1" data-name="Layer 1" xmlns="http://www.w3.org/2000/svg" viewBox="0 0 1833.99 428.92"><defs><style>.cls-1{fill:#fff;}</style></defs><path class="cls-1" d="M410.91,29.14A279.4,279.4,0,0,0,385.56,7.23a13.68,13.68,0,0,0-10.75-2.51c-14.07,2.77-90.38,14-157.46,14S73.94,7.49,59.89,4.72A13.61,13.61,0,0,0,49.14,7.23,281,281,0,0,0,23.79,29.14a13.43,13.43,0,0,0-4,9.14c-.42,11.65-.62,21.41-.62,30.75,0,10.4.25,21.57.75,34.16a834.93,834.93,0,0,0,49.41,252,13.54,13.54,0,0,0,3.8,5.53c40,34.92,102.25,63.78,144.26,63.78s104.28-28.86,144.28-63.78a13.59,13.59,0,0,0,3.78-5.53,834.32,834.32,0,0,0,49.41-251.95c.51-12.55.75-23.72.75-34.16,0-9.34-.2-19.11-.62-30.75A13.39,13.39,0,0,0,410.91,29.14ZM187.62,267c-1.32,2.48-1.22,2.25-.72,1.29-15.75,27.92-41.15,31.5-69.72,20.16-27.11-10.72-52.41-34.79-42.39-67.47,9.4-29.47,55.47-17.48,76.64-12.24,30,7.38,52.77,24.9,36.76,57.11C188.78,264.72,189,264.35,187.62,267Zm172.75-20.48C353.1,276.35,323.24,292,293.8,295c-27.11,2.82-51-23.47-52-49.8,0,1.83,0,3.44-.05-1.07,0-1.26,0-1.32,0-.84.91-31.82,47.87-37.22,71.57-39.93C344.59,199.82,369.1,210.56,360.37,246.47Z"/><path class="cls-1" d="M1124.86,157.41l4.59-26.85a11.8,11.8,0,0,0-2.43-9.35,10.94,10.94,0,0,0-8.5-4.09h-64.26a11.17,11.17,0,0,0-10.91,9.45l-37.56,219.88.38.17-5.55,32.51a11.66,11.66,0,0,0,2.42,9.35,11,11,0,0,0,8.5,4.1h64.26a11.2,11.2,0,0,0,10.91-9.46l37.57-219.88A49.17,49.17,0,0,0,1124.86,157.41Z"/><path class="cls-1" d="M1012.62,127.9a15.52,15.52,0,0,0-16.1-18.13,205.75,205.75,0,0,0-43.06,6.83A152.83,152.83,0,0,0,904,139.86c-15.65,11.31-29.13,26.44-40.07,45a169.72,169.72,0,0,0-15.6,35.89c.2-3.43.32-6.89.32-10.37A185.38,185.38,0,0,0,837.72,148l-10.29-28.22a11.44,11.44,0,0,0-14.64-6.82L652.44,171.26a11.44,11.44,0,0,0-6.83,14.66l23.44,64.42a11.45,11.45,0,0,0,14.66,6.82l71.09-25.89A90.9,90.9,0,1,1,697.48,125a11.41,11.41,0,0,0,14.63-6.85l23.46-64.42A11.43,11.43,0,0,0,728.73,39a182.24,182.24,0,0,0-62.34-10.95h0A182.42,182.42,0,0,0,484.14,210.32c0,100.48,81.76,182.24,182.25,182.26,78,0,144.71-49.3,170.65-118.35l-17.11,100.2a15.53,15.53,0,0,0,15.31,18.15h64.27a15.51,15.51,0,0,0,15.31-12.92L937,249.83c2.6-15.26,7.61-26.24,14.89-32.63s17.72-9.42,31.51-9.42h2.47a15.53,15.53,0,0,0,15.32-12.91Z"/><path class="cls-1" d="M1810.94,115a15.64,15.64,0,0,0-12.41-5.19,205.85,205.85,0,0,0-43.06,6.83A152.92,152.92,0,0,0,1706,139.86c-15.65,11.31-29.13,26.44-40.07,45a168.66,168.66,0,0,0-15.27,34.88L1679.9,48.47a15.54,15.54,0,0,0-15.32-18.15h-64.26A15.54,15.54,0,0,0,1585,43.24L1570.72,127a123.62,123.62,0,0,0-51.56-11c-61.72,0-117.21,43.09-137.56,101.72,4.1-40.11-4.44-68.2-25.63-83.49-22-15.83-47.88-23.86-77-23.86l-.51,0c-28.23,1.35-55.55,9.84-81.18,25.23-27.06,16.24-44.77,47.91-52.67,94.13l-25.25,147.85a11.67,11.67,0,0,0,2.42,9.35,11,11,0,0,0,8.49,4.09h64.27a11.22,11.22,0,0,0,10.92-9.45L1233,220.4c2.07-12.12,6.62-20.54,13.9-25.73,7.94-5.65,16.07-8.4,24.86-8.4,8.31,0,15.1,2.48,20.74,7.58,1.69,1.53,6.84,6.2,4,22.59l-22,128.89a53,53,0,0,0-.64,5.45L1269,379.14a11.71,11.71,0,0,0,2.43,9.36,10.93,10.93,0,0,0,8.49,4.08h64.27a11.21,11.21,0,0,0,10.92-9.45L1373.62,275c4.22,66.57,55.66,117.63,122.86,117.63,70.62,0,133.08-56.43,144.06-128a1.64,1.64,0,0,0,.21-.24L1622,374.43a15.51,15.51,0,0,0,15.3,18.15h64.28a15.51,15.51,0,0,0,15.3-12.92L1739,249.83c2.6-15.26,7.61-26.24,14.9-32.63,7.12-6.25,17.72-9.42,31.51-9.42h2.47a15.51,15.51,0,0,0,15.31-12.91l11.44-67A15.57,15.57,0,0,0,1810.94,115ZM1561.35,254.25c-2.48,30.52-28.49,55.28-58.06,55.28s-51.52-24.76-49-55.28,28.5-55.27,58.07-55.27S1563.86,223.74,1561.35,254.25Z"/><path class="cls-1" d="M1786.42,383.67A15.64,15.64,0,1,1,1791,372.6,15,15,0,0,1,1786.42,383.67Zm-20.53-20.55a13.59,13.59,0,0,0,0,19.06,13.36,13.36,0,0,0,19,0,13.57,13.57,0,0,0,0-19.06,13.36,13.36,0,0,0-19,0Zm9.18.87a13.05,13.05,0,0,1,4.67.62,4.25,4.25,0,0,1,2.66,4.34,3.75,3.75,0,0,1-1.67,3.38,6.53,6.53,0,0,1-2.48.83,4.13,4.13,0,0,1,2.94,1.68,4.69,4.69,0,0,1,.93,2.65v1.25c0,.4,0,.82.05,1.28a2.62,2.62,0,0,0,.14.89l.11.21h-2.83a1,1,0,0,0,0-.17c0-.06,0-.12,0-.19l-.06-.55v-1.36c0-2-.54-3.28-1.62-3.91a7.22,7.22,0,0,0-3.36-.56h-2.38v6.74h-3V364Zm3.26,2.7a7.93,7.93,0,0,0-3.66-.64h-2.58v6.21h2.73a8.34,8.34,0,0,0,2.88-.38,3.09,3.09,0,0,0,.63-5.19Z"/></svg>